<svg xmlns="http://www.w3.org/2000/svg" viewBox="90 95 220 200">
  <path fill="#1e1e1e" d="M303.01,287.08h-44.12c-1.91.06-3.78-.46-5.39-1.5-1.6-1.03-2.85-2.53-3.58-4.29l-47.89-111.75c-.07-.27-.19-.53-.36-.75-.17-.22-.38-.41-.63-.54-.24-.14-.52-.22-.79-.25-.28-.03-.56,0-.82.09-.35.09-.67.27-.92.53-.25.25-.44.57-.53.92l-29.8,70.99c-.14.3-.22.63-.23.96-.01.33.05.67.17.98.12.31.31.59.54.83.24.24.52.42.83.55h33.85c1,.01,1.97.32,2.8.89s1.46,1.36,1.83,2.29l14.47,31.81c.63,1.44.67,3.07.1,4.53s-1.7,2.64-3.13,3.28c-.77.14-1.55.14-2.31,0h-119.64c-.72,0-1.42-.14-2.08-.42-.66-.28-1.26-.68-1.75-1.2-.5-.51-.89-1.12-1.15-1.79-.26-.67-.38-1.38-.37-2.09-.15-.67-.15-1.36,0-2.02l75.95-180.72c.76-1.94,2.1-3.6,3.83-4.76,1.73-1.16,3.78-1.77,5.86-1.74h43.4c2.08.01,4.1.64,5.83,1.79,1.72,1.16,3.07,2.8,3.86,4.71l76.39,180.72c.54,1.31.56,2.77.05,4.09s-1.51,2.39-2.8,2.99c-.72.14-1.45.14-2.17,0"/>
</svg>
