<?xml version="1.0" encoding="UTF-8"?>
<svg id="Layer_1" data-name="Layer 1" xmlns="http://www.w3.org/2000/svg" viewBox="0 0 1080 172.87">
  <defs>
    <style>
      .cls-1 {
        fill: #457fc1;
      }

      .cls-2 {
        fill: #bf3078;
      }
    </style>
  </defs>
  <path class="cls-2" d="M5.89,9.71h32.07v150.22H5.89V9.71Z"/>
  <path class="cls-2" d="M78.93,8.61l29.02.85c30.23.88,48.67,9.54,46.71,76.5-1.94,66.56-21.47,74.52-51.09,73.65l-29.02-.85,4.38-150.16ZM109.62,133.18c10.15.3,11.22-8.81,12.37-48.18,1.18-40.38.57-47.51-9.78-47.81l-2.03-.06-2.8,95.98,2.23.07Z"/>
  <path class="cls-2" d="M161.78,12.71h58.06v27.61h-25.98v30.04h18.47v25.58h-18.47v40.4h26.39v26.59h-58.46V12.71Z"/>
  <path class="cls-2" d="M221.67,110.6l29.64-2.03c1.42,21.52,2.64,26.39,8.93,26.39,4.26,0,6.5-3.45,6.5-10.35,0-11.37-8.93-18.88-18.88-29.23-11.37-11.98-23.95-24.77-23.95-47.91s11.77-39.18,35.53-39.18c28.22,0,36.34,16.85,37.35,48.11l-29.84,2.44c-.61-22.33-2.84-23.14-6.9-23.14-3.45,0-4.67,3.65-4.67,8.32,0,13.8,8.32,21.11,17.86,30.45,11.77,11.77,24.97,23.14,24.97,48.31s-13.19,38.57-38.16,38.57c-32.68,0-36.95-21.92-38.37-50.75Z"/>
  <path class="cls-2" d="M305.91,9.71h32.07v150.22h-32.07V9.71Z"/>
  <path class="cls-2" d="M342.89,89.8c-6.21-54.66,3.46-77.42,29.89-80.42,26.22-2.98,35.55,14.35,42.47,57.29l-29.11,4.53c-3.21-28.24-5.19-33.12-10.03-32.57-6.25.71-5.03,13.24-1.14,47.53s4.89,48.48,13.57,47.49c6.45-.73,6.98-6.92,5.54-24.94l-9.68,1.1-2.77-24.41,36.51-4.15,8.48,74.63-17.15,1.95-2.58-17.28-.2.02c-.87,10.31-8.81,19.59-21.72,21.06-24.61,2.8-35.87-17.17-42.08-71.84Z"/>
  <path class="cls-2" d="M430.35,9.71h29.64l6.29,27.41c3.45,14.82,7.31,31.87,9.95,47.1h.41c-1.01-16.65-1.42-31.47-1.42-45.07V9.71h27.41v150.22h-25.98l-7.51-26.19c-4.67-16.04-9.54-30.65-12.38-47.1h-.41c1.22,11.57,1.42,35.32,1.42,45.68v27.61h-27.41V9.71Z"/>
  <path class="cls-1" d="M536.72,110.6l29.64-2.03c1.42,21.52,2.64,26.39,8.93,26.39,4.26,0,6.5-3.45,6.5-10.35,0-11.37-8.93-18.88-18.88-29.23-11.37-11.98-23.95-24.77-23.95-47.91s11.77-39.18,35.53-39.18c28.22,0,36.34,16.85,37.35,48.11l-29.84,2.44c-.61-22.33-2.84-23.14-6.9-23.14-3.45,0-4.67,3.65-4.67,8.32,0,13.8,8.32,21.11,17.87,30.45,11.77,11.77,24.97,23.14,24.97,48.31s-13.2,38.57-38.16,38.57c-32.68,0-36.95-21.92-38.37-50.75Z"/>
  <path class="cls-1" d="M631.52,118.49l-23.34-103.33h32.07l5.68,35.32c1.42,8.93,2.64,18.47,3.65,27.81h.41c.81-9.54,2.44-18.88,3.86-28.01l5.48-35.12h27.81l-23.55,103.33v46.89h-32.08v-46.89Z"/>
  <path class="cls-1" d="M685.85,112.56l29.49-3.57c2.54,21.42,4.01,26.22,10.3,25.89,4.26-.22,6.31-3.79,5.95-10.68-.59-11.35-9.9-18.39-20.38-28.21-11.98-11.37-25.21-23.48-26.42-46.6-1.25-23.92,9.72-39.74,33.43-40.98,28.18-1.47,37.17,14.93,39.81,46.1l-29.67,3.99c-1.77-22.27-4.04-22.96-8.1-22.75-3.45.18-4.47,3.89-4.23,8.56.72,13.79,9.41,20.65,19.43,29.48,12.37,11.14,26.14,21.81,27.45,46.95,1.3,24.94-11.17,39.21-36.1,40.51-32.64,1.7-38.04-19.97-40.96-48.68Z"/>
  <path class="cls-1" d="M775.45,37.32h-18.68V9.71h69.43v27.61h-18.68v122.61h-32.08V37.32Z"/>
  <path class="cls-1" d="M833.6,8.77l58.03,1.94-.92,27.59-25.97-.87-1.01,30.03,18.46.62-.86,25.56-18.46-.62-1.35,40.38,26.38.88-.89,26.58-58.43-1.96,5.03-150.14Z"/>
  <path class="cls-1" d="M895.62,9.71h37.76l8.53,79.98h.2l8.53-79.98h37.56v150.22h-30.04v-53.19c0-11.98.2-25.17.2-33.7h-.41c-1.02,12.79-2.03,24.56-3.25,33.5l-7.31,53.39h-15.23l-7.31-53.39c-1.22-8.93-1.83-16.44-3.25-33.09h-.41c.2,4.47.2,20.1.2,33.29v53.19h-25.78V9.71Z"/>
  <path class="cls-1" d="M994.48,110.6l29.64-2.03c1.42,21.52,2.64,26.39,8.93,26.39,4.26,0,6.5-3.45,6.5-10.35,0-11.37-8.93-18.88-18.88-29.23-11.37-11.98-23.95-24.77-23.95-47.91s11.77-39.18,35.53-39.18c28.22,0,36.34,16.85,37.35,48.11l-29.84,2.44c-.61-22.33-2.84-23.14-6.9-23.14-3.45,0-4.67,3.65-4.67,8.32,0,13.8,8.32,21.11,17.86,30.45,11.77,11.77,24.97,23.14,24.97,48.31s-13.2,38.57-38.16,38.57c-32.68,0-36.95-21.92-38.37-50.75Z"/>
</svg>