<?xml version="1.0" encoding="UTF-8"?>
<svg id="Layer_1" xmlns="http://www.w3.org/2000/svg" viewBox="0 0 864 459">
  <polygon points="36 432 221.36 432 36 27.57 36 432"/>
  <path d="M221.36,27.57v404.43c111.68,0,202.21-90.53,202.21-202.21S333.04,27.57,221.36,27.57Z"/>
  <path d="M625.79,229.79V27.57c-111.68,0-202.21,90.53-202.21,202.21,0,13.96,1.41,27.59,4.11,40.75,1.01,4.94,2.2,9.81,3.56,14.61,1.82,6.4,3.94,12.67,6.36,18.79,8.45,21.43,20.45,41.07,35.28,58.19,2.12,2.45,4.3,4.84,6.53,7.18,2.23,2.34,4.52,4.63,6.86,6.86,2.34,2.23,4.74,4.41,7.18,6.53,4.89,4.24,9.99,8.24,15.27,12,11.89,8.46,24.74,15.66,38.35,21.42,3.02,1.28,6.09,2.49,9.18,3.62,21.68,7.94,45.1,12.27,69.53,12.27,111.68,0,202.21-90.53,202.21-202.21h-202.21Z"/>
</svg>