<svg width="400" height="392" viewBox="67 72 417 408" fill="none" xmlns="http://www.w3.org/2000/svg">
<g clip-path="url(#clip0_1_28)">
<path d="M432.02 107.171H117.65V448.154H432.02V107.171Z" fill="white"/>
<path d="M400.528 87.4522H150.472C132.39 87.4518 115.042 94.5988 102.214 107.333C89.3861 120.068 82.1195 137.357 82 155.426V396.574C82 414.722 89.2139 432.126 102.055 444.958C114.896 457.791 132.312 465 150.472 465H400.528C418.688 465 436.104 457.791 448.945 444.958C461.786 432.126 469 414.722 469 396.574V155.426C469 137.278 461.786 119.874 448.945 107.041C436.104 94.2091 418.688 87 400.528 87M382.883 370.952H336.883C334.897 371.013 332.939 370.469 331.269 369.392C329.599 368.315 328.296 366.757 327.532 364.923L277.611 248.419C277.543 248.135 277.416 247.869 277.239 247.637C277.063 247.405 276.84 247.212 276.585 247.07C276.33 246.929 276.048 246.842 275.757 246.814C275.467 246.787 275.174 246.82 274.897 246.911C274.534 247.006 274.203 247.196 273.938 247.461C273.673 247.726 273.483 248.056 273.389 248.419L242.32 322.421C242.171 322.736 242.089 323.078 242.077 323.427C242.065 323.775 242.125 324.122 242.252 324.446C242.379 324.771 242.571 325.066 242.816 325.314C243.061 325.562 243.354 325.757 243.677 325.888H278.969C280.011 325.902 281.025 326.225 281.884 326.815C282.743 327.405 283.408 328.236 283.795 329.203L298.877 362.361C299.536 363.86 299.572 365.559 298.978 367.085C298.384 368.611 297.209 369.839 295.71 370.5C294.912 370.644 294.094 370.644 293.297 370.5H168.57C167.824 370.5 167.086 370.351 166.399 370.062C165.712 369.772 165.09 369.348 164.57 368.814C164.049 368.28 163.642 367.647 163.37 366.953C163.099 366.259 162.969 365.518 162.989 364.773C162.834 364.078 162.834 363.357 162.989 362.663L242.169 174.266C242.965 172.243 244.358 170.512 246.163 169.3C247.968 168.088 250.1 167.455 252.274 167.483H297.519C299.684 167.496 301.798 168.146 303.595 169.352C305.392 170.558 306.794 172.267 307.624 174.266L387.256 362.663C387.823 364.025 387.841 365.554 387.307 366.93C386.773 368.306 385.729 369.423 384.391 370.048C383.644 370.19 382.876 370.19 382.129 370.048" fill="#FA0F01"/>
</g>
<defs>
<clipPath id="clip0_1_28">
<rect width="550" height="550" fill="white"/>
</clipPath>
</defs>
</svg>
