<?xml version="1.0" encoding="UTF-8"?>
<svg id="Layer_1" xmlns="http://www.w3.org/2000/svg" version="1.1" viewBox="0 0 400 392">
  <!-- Generator: Adobe Illustrator 30.2.1, SVG Export Plug-In . SVG Version: 2.1.1 Build 1)  -->
  <defs>
    <style>
      .st0 {
        fill: #fa0f01;
      }
    </style>
  </defs>
  <path class="st0" d="M303,287.1h-44.1c-1.9,0-3.8-.5-5.4-1.5-1.6-1-2.9-2.5-3.6-4.3l-47.9-111.8c0-.3-.2-.5-.4-.8-.2-.2-.4-.4-.6-.5-.2-.1-.5-.2-.8-.2-.3,0-.6,0-.8,0-.3,0-.7.3-.9.5-.3.3-.4.6-.5.9l-29.8,71c-.1.3-.2.6-.2,1,0,.3,0,.7.2,1,.1.3.3.6.5.8.2.2.5.4.8.6h33.9c1,0,2,.3,2.8.9s1.5,1.4,1.8,2.3l14.5,31.8c.6,1.4.7,3.1,0,4.5s-1.7,2.6-3.1,3.3c-.8.1-1.6.1-2.3,0h-119.6c-.7,0-1.4-.1-2.1-.4-.7-.3-1.3-.7-1.8-1.2-.5-.5-.9-1.1-1.2-1.8-.3-.7-.4-1.4-.4-2.1-.1-.7-.1-1.4,0-2l76-180.7c.8-1.9,2.1-3.6,3.8-4.8,1.7-1.2,3.8-1.8,5.9-1.7h43.4c2.1,0,4.1.6,5.8,1.8,1.7,1.2,3.1,2.8,3.9,4.7l76.4,180.7c.5,1.3.6,2.8,0,4.1s-1.5,2.4-2.8,3c-.7.1-1.5.1-2.2,0"/>
</svg>