<svg width="550" height="230" viewBox="16 156 512 224" fill="none" xmlns="http://www.w3.org/2000/svg">
<path d="M124.656 171.083C108.46 172.454 96.6712 175.615 84.012 181.936C73.9352 186.971 65.739 192.789 57.5989 200.705C48.7571 209.32 42.5538 217.711 37.0803 228.536C31.2981 240.032 27.9017 251.472 26.3579 264.759C25.8807 268.787 25.8807 282.269 26.3579 286.297C29.1367 310.436 38.9609 331.358 55.4656 348.225C67.4512 360.504 81.0647 369.119 96.8958 374.49C108.488 378.434 118.341 380 131.252 380C139.673 379.972 143.996 379.58 151.182 378.154C160.557 376.308 168.163 373.734 177.005 369.371C187.812 364.084 195.447 358.714 203.896 350.49C209.06 345.484 208.555 346.099 237.214 311.471C253.662 291.555 261.072 282.436 261.634 281.262C263.374 277.709 263.402 273.458 261.69 269.849C261.072 268.563 254.813 260.759 237.522 239.724C224.695 224.117 213.832 211.026 213.411 210.634C212.99 210.243 211.558 208.648 210.211 207.11C207.011 203.418 200.443 197.068 196.906 194.243C181.188 181.656 163.083 174.076 142.901 171.587C139.589 171.195 127.435 170.831 124.656 171.083ZM140.515 211.893C153.455 213.935 165.413 219.697 174.844 228.452C177.567 230.997 209.846 269.514 210.772 271.332C211.446 272.675 211.53 273.178 211.53 275.556C211.53 277.989 211.446 278.381 210.688 279.835C209.594 281.905 175.854 321.82 173.44 323.89C160.641 334.855 145.203 340.337 128.726 339.777C118.846 339.442 110.65 337.344 102.06 333.008C95.1555 329.54 90.0749 325.792 84.4892 320.114C72.1668 307.499 65.7109 290.884 66.3565 273.29C66.8898 259.164 71.3528 246.997 80.2507 235.529C84.1804 230.494 91.0293 224.396 96.98 220.732C104.362 216.145 113.821 212.788 122.27 211.781C123.674 211.613 125.19 211.418 125.639 211.362C127.519 211.11 137.849 211.474 140.515 211.893Z" fill="#1E1E1E"/>
<path d="M268.263 171.325C264.028 172.279 260.571 174.13 257.488 177.102C253.944 180.552 252.1 184.366 251.438 189.582C250.746 195.051 252.273 200.295 256.249 206.016C257.949 208.455 257.776 208.231 287.738 242.669C301.193 258.149 311.276 269.956 311.737 270.825C312.976 273.125 313.293 275.368 312.717 277.668C312.428 278.705 311.91 280.08 311.535 280.697C311.132 281.342 299.205 295.223 284.973 311.573C270.769 327.922 258.295 342.365 257.286 343.683C254.981 346.684 252.792 350.778 251.985 353.667C251.121 356.667 251.121 361.351 251.985 364.576C253.915 371.783 259.188 377.055 266.707 379.355C268.58 379.916 269.444 380 273.333 380C277.107 380 278.145 379.888 280.046 379.355C285.866 377.728 289.813 374.784 295.632 367.801C297.217 365.866 313.638 346.179 332.077 324.052C350.544 301.926 366.015 283.164 366.418 282.407C367.772 279.967 368.204 278.032 368.06 274.863C367.916 271.807 367.311 269.787 365.871 267.74C364.257 265.413 293.846 181.085 291.628 178.841C287.998 175.139 284.512 172.98 280.19 171.746C277.453 170.989 270.913 170.736 268.263 171.325Z" fill="#06B6D4"/>
<path d="M364.643 171.371C360.51 172.324 357.136 174.174 354.127 177.144C351.681 179.583 350.191 181.993 349.207 185.02C346.901 192.307 347.97 198.641 352.749 205.731C353.734 207.217 366.189 222.127 380.416 238.887C395.459 256.599 406.621 269.968 407.071 270.809C408.646 273.864 408.646 277.171 407.071 280.226C406.621 281.067 396.78 292.866 383.65 308.336C354.296 342.921 354.577 342.557 352.918 344.995C349.46 350.096 348.11 354.075 348.138 359.036C348.195 368.817 353.79 376.356 363.125 379.271C364.952 379.832 365.796 379.916 369.591 379.916C373.275 379.916 374.287 379.804 376.143 379.271C380.473 378.038 383.875 375.908 387.446 372.153C388.683 370.863 398.524 358.952 409.321 345.668C429.79 320.472 429.818 320.444 432.714 319.491C434.401 318.93 437.494 319.07 439.321 319.771C440.165 320.079 441.458 320.892 442.189 321.537C442.92 322.209 451.749 332.887 461.843 345.303C471.909 357.719 480.85 368.705 481.693 369.742C487.738 377.169 494.29 380.336 502.837 379.972C508.91 379.748 513.184 377.926 517.205 373.89C519.96 371.172 521.535 368.481 522.575 364.754C523.419 361.867 523.475 356.486 522.744 353.711C522.013 351.021 519.735 346.62 517.57 343.762C516.502 342.36 504.243 327.787 490.269 311.335C475.114 293.482 464.57 280.814 464.12 279.946C463.445 278.6 463.361 278.18 463.361 275.517C463.361 272.967 463.445 272.378 464.064 271.173C464.486 270.332 474.889 257.861 490.325 239.643C504.384 223.08 516.699 208.45 517.683 207.133C519.735 204.358 522.013 199.93 522.744 197.324C523.475 194.549 523.419 189.168 522.575 186.281C520.607 179.246 515.49 174.062 508.348 171.819C505.564 170.951 500.166 170.726 496.933 171.371C490.831 172.604 486.164 175.771 480.906 182.273C459.059 209.207 442.442 229.442 441.683 230.002C439.462 231.712 436.144 232.385 433.417 231.684C429.902 230.787 430.492 231.432 409.067 205.059C398.13 191.634 388.289 179.723 387.193 178.602C383.847 175.155 380.36 172.969 376.283 171.791C373.612 171.035 367.23 170.782 364.643 171.371Z" fill="#06B6D4"/>
</svg>
